solid ascii
  facet normal 0.000000e+000 0.000000e+000 -6.624573e+000
    outer loop
      vertex   1.948942e+002 7.962573e+001 -1.588187e-021
      vertex   1.961529e+002 8.069266e+001 -1.588187e-021
      vertex   1.941630e+002 7.456859e+001 -1.588187e-021
    endloop
  endfacet
  facet normal 0.000000e+000 0.000000e+000 5.877861e+000
    outer loop
      vertex   1.941630e+002 8.343141e+001 1.434036e+001
      vertex   1.909434e+002 7.352248e+001 1.434036e+001
      vertex   1.961529e+002 7.730735e+001 1.434036e+001
    endloop
  endfacet
  facet normal -3.090166e+000 -4.253257e+000 2.628649e+000
    outer loop
      vertex   1.909434e+002 7.352248e+001 1.434036e+001
      vertex   1.857340e+002 7.730735e+001 1.434036e+001
      vertex   1.825144e+002 7.626123e+001 8.862828e+000
    endloop
  endfacet
  facet normal -4.999996e+000 1.624607e+000 2.628670e+000
    outer loop
      vertex   1.857340e+002 7.730735e+001 1.434036e+001
      vertex   1.877238e+002 8.343141e+001 1.434036e+001
      vertex   1.857340e+002 8.617018e+001 8.862828e+000
    endloop
  endfacet
  facet normal 3.090168e+000 4.253261e+000 -2.628658e+000
    outer loop
      vertex   1.961529e+002 8.069266e+001 -1.588187e-021
      vertex   1.909434e+002 8.786282e+001 5.477529e+000
      vertex   1.961529e+002 8.617018e+001 8.862828e+000
    endloop
  endfacet
  facet normal 3.090166e+000 4.253258e+000 -2.628655e+000
    outer loop
      vertex   1.961529e+002 8.069266e+001 -1.588187e-021
      vertex   1.909434e+002 8.447753e+001 -1.588187e-021
      vertex   1.909434e+002 8.786282e+001 5.477529e+000
    endloop
  endfacet
  facet normal 0.000000e+000 0.000000e+000 -1.697524e+000
    outer loop
      vertex   1.877238e+002 7.456859e+001 -1.588187e-021
      vertex   1.927594e+002 7.543597e+001 -1.588187e-021
      vertex   1.941630e+002 7.456859e+001 -1.588187e-021
    endloop
  endfacet
  facet normal 0.000000e+000 0.000000e+000 -1.697515e+000
    outer loop
      vertex   1.857340e+002 8.069266e+001 -1.588187e-021
      vertex   1.881150e+002 7.617158e+001 -1.588187e-021
      vertex   1.877238e+002 7.456859e+001 -1.588187e-021
    endloop
  endfacet
  facet normal 0.000000e+000 0.000000e+000 -4.440250e-002
    outer loop
      vertex   1.947834e+002 7.892640e+001 -3.632716e-006
      vertex   1.870252e+002 7.831036e+001 -3.632716e-006
      vertex   1.870082e+002 7.834373e+001 -3.632716e-006
    endloop
  endfacet
  facet normal -1.211145e-005 -6.173379e-006 -2.566004e-001
    outer loop
      vertex   1.870082e+002 7.834373e+001 -3.632716e-006
      vertex   1.870252e+002 7.831036e+001 -3.632716e-006
      vertex   1.857340e+002 8.069266e+001 -1.588187e-021
    endloop
  endfacet
  facet normal 9.198776e-004 4.994195e-004 -2.611875e-001
    outer loop
      vertex   1.870082e+002 7.834373e+001 -3.632716e-006
      vertex   1.857340e+002 8.069266e+001 -1.588187e-021
      vertex   1.869927e+002 7.837427e+001 -1.588187e-021
    endloop
  endfacet
  facet normal 0.000000e+000 0.000000e+000 -9.768557e+000
    outer loop
      vertex   1.870082e+002 7.834373e+001 -3.632716e-006
      vertex   1.871814e+002 7.956551e+001 -3.632716e-006
      vertex   1.947834e+002 7.892640e+001 -3.632716e-006
    endloop
  endfacet
  facet normal 0.000000e+000 0.000000e+000 -9.973151e+000
    outer loop
      vertex   1.947834e+002 7.892640e+001 -3.632716e-006
      vertex   1.871814e+002 7.956551e+001 -3.632716e-006
      vertex   1.947943e+002 7.899500e+001 -3.632716e-006
    endloop
  endfacet
  facet normal 8.151163e-006 -1.291767e-006 -1.575759e-001
    outer loop
      vertex   1.947834e+002 7.892640e+001 -3.632716e-006
      vertex   1.947943e+002 7.899500e+001 -3.632716e-006
      vertex   1.941630e+002 7.456859e+001 -1.588187e-021
    endloop
  endfacet
  facet normal 8.041091e-006 -1.162551e-006 -1.925541e-002
    outer loop
      vertex   1.941630e+002 7.456859e+001 -1.588187e-021
      vertex   1.947943e+002 7.899500e+001 -3.632716e-006
      vertex   1.948942e+002 7.962573e+001 -1.588187e-021
    endloop
  endfacet
  facet normal 5.068541e-005 2.582718e-005 -5.877937e+000
    outer loop
      vertex   1.948942e+002 7.962573e+001 -1.588187e-021
      vertex   1.947943e+002 7.899500e+001 -3.632716e-006
      vertex   1.948375e+002 7.973698e+001 -1.588187e-021
    endloop
  endfacet
  facet normal 0.000000e+000 0.000000e+000 -9.732417e+000
    outer loop
      vertex   1.948942e+002 7.962573e+001 -1.588187e-021
      vertex   1.948375e+002 7.973698e+001 -1.588187e-021
      vertex   1.961529e+002 8.069266e+001 -1.588187e-021
    endloop
  endfacet
  facet normal -1.049808e-003 1.487610e-004 -5.742566e+000
    outer loop
      vertex   1.870082e+002 7.834373e+001 -3.632716e-006
      vertex   1.869927e+002 7.837427e+001 -1.588187e-021
      vertex   1.871814e+002 7.956551e+001 -3.632716e-006
    endloop
  endfacet
  facet normal -3.806459e-005 -2.066601e-005 -8.753835e+000
    outer loop
      vertex   1.871814e+002 7.956551e+001 -3.632716e-006
      vertex   1.869927e+002 7.837427e+001 -1.588187e-021
      vertex   1.857340e+002 8.069266e+001 -1.588187e-021
    endloop
  endfacet
  facet normal -1.955843e-005 3.098867e-006 -8.754105e+000
    outer loop
      vertex   1.871814e+002 7.956551e+001 -3.632716e-006
      vertex   1.857340e+002 8.069266e+001 -1.588187e-021
      vertex   1.871907e+002 7.962426e+001 -3.632716e-006
    endloop
  endfacet
  facet normal -1.986178e-005 3.145660e-006 -8.889507e+000
    outer loop
      vertex   1.871907e+002 7.962426e+001 -3.632716e-006
      vertex   1.857340e+002 8.069266e+001 -1.588187e-021
      vertex   1.873752e+002 8.078955e+001 -3.632716e-006
    endloop
  endfacet
  facet normal 0.000000e+000 0.000000e+000 -9.709601e+000
    outer loop
      vertex   1.871907e+002 7.962426e+001 -3.632716e-006
      vertex   1.873752e+002 8.078955e+001 -3.632716e-006
      vertex   1.945761e+002 8.024991e+001 -3.632716e-006
    endloop
  endfacet
  facet normal -1.651250e-006 2.203378e-005 -1.583289e-001
    outer loop
      vertex   1.857340e+002 8.069266e+001 -1.588187e-021
      vertex   1.873794e+002 8.081596e+001 -1.588187e-021
      vertex   1.873752e+002 8.078955e+001 -3.632716e-006
    endloop
  endfacet
  facet normal -1.300168e-003 3.930469e-004 -1.363197e+000
    outer loop
      vertex   1.873752e+002 8.078955e+001 -3.632716e-006
      vertex   1.873794e+002 8.081596e+001 -1.588187e-021
      vertex   1.873849e+002 8.082141e+001 -3.632716e-006
    endloop
  endfacet
  facet normal 0.000000e+000 0.000000e+000 -9.312307e+000
    outer loop
      vertex   1.873752e+002 8.078955e+001 -3.632716e-006
      vertex   1.873849e+002 8.082141e+001 -3.632716e-006
      vertex   1.940312e+002 8.131949e+001 -3.632716e-006
    endloop
  endfacet
  facet normal -3.377290e-003 3.287330e-003 -1.437173e-001
    outer loop
      vertex   1.873794e+002 8.081596e+001 -1.588187e-021
      vertex   1.909434e+002 8.447753e+001 -1.588187e-021
      vertex   1.873849e+002 8.082141e+001 -3.632716e-006
    endloop
  endfacet
  facet normal -5.034699e-006 5.034699e-006 -1.351864e-001
    outer loop
      vertex   1.873849e+002 8.082141e+001 -3.632716e-006
      vertex   1.909434e+002 8.447753e+001 -1.588187e-021
      vertex   1.883781e+002 8.181461e+001 -3.632716e-006
    endloop
  endfacet
  facet normal 0.000000e+000 0.000000e+000 -6.522872e+000
    outer loop
      vertex   1.873849e+002 8.082141e+001 -3.632716e-006
      vertex   1.883781e+002 8.181461e+001 -3.632716e-006
      vertex   1.940312e+002 8.131949e+001 -3.632716e-006
    endloop
  endfacet
  facet normal 0.000000e+000 0.000000e+000 -8.480104e+000
    outer loop
      vertex   1.940312e+002 8.131949e+001 -3.632716e-006
      vertex   1.883781e+002 8.181461e+001 -3.632716e-006
      vertex   1.939933e+002 8.139380e+001 -3.632716e-006
    endloop
  endfacet
  facet normal 1.463061e-005 7.454253e-006 -7.258802e+000
    outer loop
      vertex   1.940312e+002 8.131949e+001 -3.632716e-006
      vertex   1.939933e+002 8.139380e+001 -3.632716e-006
      vertex   1.961529e+002 8.069266e+001 -1.588187e-021
    endloop
  endfacet
  facet normal 6.888340e-006 1.444068e-005 -1.307784e+000
    outer loop
      vertex   1.961529e+002 8.069266e+001 -1.588187e-021
      vertex   1.939933e+002 8.139380e+001 -3.632716e-006
      vertex   1.937719e+002 8.182842e+001 -1.588187e-021
    endloop
  endfacet
  facet normal 7.006851e-005 8.483008e-005 -5.877685e+000
    outer loop
      vertex   1.937719e+002 8.182842e+001 -1.588187e-021
      vertex   1.939933e+002 8.139380e+001 -3.632716e-006
      vertex   1.929765e+002 8.223370e+001 -3.632716e-006
    endloop
  endfacet
  facet normal 2.781835e-005 2.970140e-005 -2.777281e+000
    outer loop
      vertex   1.937719e+002 8.182842e+001 -1.588187e-021
      vertex   1.929765e+002 8.223370e+001 -3.632716e-006
      vertex   1.909434e+002 8.447753e+001 -1.588187e-021
    endloop
  endfacet
  facet normal 5.067644e-007 9.945621e-007 -3.307052e-001
    outer loop
      vertex   1.909434e+002 8.447753e+001 -1.588187e-021
      vertex   1.929765e+002 8.223370e+001 -3.632716e-006
      vertex   1.927454e+002 8.235142e+001 -3.632716e-006
    endloop
  endfacet
  facet normal 3.643926e-006 7.151638e-006 -2.378057e+000
    outer loop
      vertex   1.909434e+002 8.447753e+001 -1.588187e-021
      vertex   1.927454e+002 8.235142e+001 -3.632716e-006
      vertex   1.917520e+002 8.285758e+001 -3.632716e-006
    endloop
  endfacet
  facet normal 0.000000e+000 0.000000e+000 -5.193021e+000
    outer loop
      vertex   1.917520e+002 8.285758e+001 -3.632716e-006
      vertex   1.927454e+002 8.235142e+001 -3.632716e-006
      vertex   1.902884e+002 8.274789e+001 -3.632716e-006
    endloop
  endfacet
  facet normal 0.000000e+000 0.000000e+000 -3.117788e+000
    outer loop
      vertex   1.902884e+002 8.274789e+001 -3.632716e-006
      vertex   1.927454e+002 8.235142e+001 -3.632716e-006
      vertex   1.893783e+002 8.260375e+001 -3.632716e-006
    endloop
  endfacet
  facet normal -3.072601e-006 1.939957e-005 -8.682585e+000
    outer loop
      vertex   1.902884e+002 8.274789e+001 -3.632716e-006
      vertex   1.893783e+002 8.260375e+001 -3.632716e-006
      vertex   1.909434e+002 8.447753e+001 -1.588187e-021
    endloop
  endfacet
  facet normal -1.079268e-005 1.024246e-005 -6.330615e-001
    outer loop
      vertex   1.909434e+002 8.447753e+001 -1.588187e-021
      vertex   1.893783e+002 8.260375e+001 -3.632716e-006
      vertex   1.891275e+002 8.256403e+001 -1.588187e-021
    endloop
  endfacet
  facet normal -1.071747e-004 1.390985e-004 -5.877700e+000
    outer loop
      vertex   1.891275e+002 8.256403e+001 -1.588187e-021
      vertex   1.893783e+002 8.260375e+001 -3.632716e-006
      vertex   1.884586e+002 8.189513e+001 -3.632716e-006
    endloop
  endfacet
  facet normal 2.785446e-005 -2.643442e-005 -2.616235e-001
    outer loop
      vertex   1.891275e+002 8.256403e+001 -1.588187e-021
      vertex   1.884586e+002 8.189513e+001 -3.632716e-006
      vertex   1.909434e+002 8.447753e+001 -1.588187e-021
    endloop
  endfacet
  facet normal -2.207323e-007 2.207062e-007 -5.907705e-003
    outer loop
      vertex   1.909434e+002 8.447753e+001 -1.588187e-021
      vertex   1.884586e+002 8.189513e+001 -3.632716e-006
      vertex   1.883781e+002 8.181461e+001 -3.632716e-006
    endloop
  endfacet
  facet normal 1.868006e-005 -6.069544e-006 -4.785630e-001
    outer loop
      vertex   1.909434e+002 8.447753e+001 -1.588187e-021
      vertex   1.903865e+002 8.276344e+001 -1.588187e-021
      vertex   1.902884e+002 8.274789e+001 -3.632716e-006
    endloop
  endfacet
  facet normal -2.732766e-005 3.646761e-004 -8.214643e-001
    outer loop
      vertex   1.902884e+002 8.274789e+001 -3.632716e-006
      vertex   1.903865e+002 8.276344e+001 -1.588187e-021
      vertex   1.917520e+002 8.285758e+001 -3.632716e-006
    endloop
  endfacet
  facet normal -2.422398e-005 1.529434e-004 -5.142125e+000
    outer loop
      vertex   1.917520e+002 8.285758e+001 -3.632716e-006
      vertex   1.903865e+002 8.276344e+001 -1.588187e-021
      vertex   1.915692e+002 8.295075e+001 -1.588187e-021
    endloop
  endfacet
  facet normal -1.492664e-004 -6.117635e-005 -5.944434e+000
    outer loop
      vertex   1.917520e+002 8.285758e+001 -3.632716e-006
      vertex   1.915692e+002 8.295075e+001 -1.588187e-021
      vertex   1.909434e+002 8.447753e+001 -1.588187e-021
    endloop
  endfacet
  facet normal 0.000000e+000 0.000000e+000 -8.910056e+000
    outer loop
      vertex   1.903865e+002 8.276344e+001 -1.588187e-021
      vertex   1.909434e+002 8.447753e+001 -1.588187e-021
      vertex   1.915692e+002 8.295075e+001 -1.588187e-021
    endloop
  endfacet
  facet normal 4.290687e-005 -5.905687e-005 -9.876888e+000
    outer loop
      vertex   1.948375e+002 7.973698e+001 -1.588187e-021
      vertex   1.946116e+002 8.018039e+001 -3.632716e-006
      vertex   1.961529e+002 8.069266e+001 -1.588187e-021
    endloop
  endfacet
  facet normal 9.494680e-007 4.837207e-007 -4.710574e-001
    outer loop
      vertex   1.961529e+002 8.069266e+001 -1.588187e-021
      vertex   1.946116e+002 8.018039e+001 -3.632716e-006
      vertex   1.945761e+002 8.024991e+001 -3.632716e-006
    endloop
  endfacet
  facet normal 1.072385e-005 5.463995e-006 -5.320467e+000
    outer loop
      vertex   1.961529e+002 8.069266e+001 -1.588187e-021
      vertex   1.945761e+002 8.024991e+001 -3.632716e-006
      vertex   1.940312e+002 8.131949e+001 -3.632716e-006
    endloop
  endfacet
  facet normal 0.000000e+000 0.000000e+000 -9.242300e+000
    outer loop
      vertex   1.940312e+002 8.131949e+001 -3.632716e-006
      vertex   1.945761e+002 8.024991e+001 -3.632716e-006
      vertex   1.873752e+002 8.078955e+001 -3.632716e-006
    endloop
  endfacet
  facet normal -7.275537e-005 9.580646e-006 -2.618248e-001
    outer loop
      vertex   1.945074e+002 7.718404e+001 -1.588187e-021
      vertex   1.945849e+002 7.767297e+001 -3.632716e-006
      vertex   1.941630e+002 7.456859e+001 -1.588187e-021
    endloop
  endfacet
  facet normal 2.534832e-007 -4.010722e-008 -4.837109e-003
    outer loop
      vertex   1.941630e+002 7.456859e+001 -1.588187e-021
      vertex   1.945849e+002 7.767297e+001 -3.632716e-006
      vertex   1.945960e+002 7.774300e+001 -3.632716e-006
    endloop
  endfacet
  facet normal 3.048381e-006 -4.828257e-007 -5.860565e-002
    outer loop
      vertex   1.941630e+002 7.456859e+001 -1.588187e-021
      vertex   1.945960e+002 7.774300e+001 -3.632716e-006
      vertex   1.947834e+002 7.892640e+001 -3.632716e-006
    endloop
  endfacet
  facet normal 0.000000e+000 0.000000e+000 -9.722055e+000
    outer loop
      vertex   1.947834e+002 7.892640e+001 -3.632716e-006
      vertex   1.945960e+002 7.774300e+001 -3.632716e-006
      vertex   1.870252e+002 7.831036e+001 -3.632716e-006
    endloop
  endfacet
  facet normal 6.256789e-005 -3.834570e-005 -3.826940e+000
    outer loop
      vertex   1.945849e+002 7.767297e+001 -3.632716e-006
      vertex   1.945074e+002 7.718404e+001 -1.588187e-021
      vertex   1.939335e+002 7.661006e+001 -3.632716e-006
    endloop
  endfacet
  facet normal 5.697766e-005 -7.502990e-006 -7.816846e+000
    outer loop
      vertex   1.939335e+002 7.661006e+001 -3.632716e-006
      vertex   1.945074e+002 7.718404e+001 -1.588187e-021
      vertex   1.941630e+002 7.456859e+001 -1.588187e-021
    endloop
  endfacet
  facet normal -9.237425e-006 -1.494856e-005 -7.816935e+000
    outer loop
      vertex   1.939335e+002 7.661006e+001 -3.632716e-006
      vertex   1.941630e+002 7.456859e+001 -1.588187e-021
      vertex   1.927594e+002 7.543597e+001 -1.588187e-021
    endloop
  endfacet
  facet normal 0.000000e+000 0.000000e+000 -1.265014e-001
    outer loop
      vertex   1.877238e+002 7.456859e+001 -1.588187e-021
      vertex   1.903177e+002 7.504925e+001 -1.588187e-021
      vertex   1.927594e+002 7.543597e+001 -1.588187e-021
    endloop
  endfacet
  facet normal 0.000000e+000 0.000000e+000 -2.091371e+000
    outer loop
      vertex   1.927594e+002 7.543597e+001 -1.588187e-021
      vertex   1.903177e+002 7.504925e+001 -1.588187e-021
      vertex   1.891819e+002 7.562796e+001 -1.588187e-021
    endloop
  endfacet
  facet normal -1.172405e-006 -2.184676e-005 -7.439790e+000
    outer loop
      vertex   1.927594e+002 7.543597e+001 -1.588187e-021
      vertex   1.891819e+002 7.562796e+001 -1.588187e-021
      vertex   1.939335e+002 7.661006e+001 -3.632716e-006
    endloop
  endfacet
  facet normal -5.595076e-007 -7.466108e-006 -2.750301e+000
    outer loop
      vertex   1.939335e+002 7.661006e+001 -3.632716e-006
      vertex   1.891819e+002 7.562796e+001 -1.588187e-021
      vertex   1.876517e+002 7.708082e+001 -3.632716e-006
    endloop
  endfacet
  facet normal -7.459298e-006 -1.463985e-005 -2.712992e+000
    outer loop
      vertex   1.876517e+002 7.708082e+001 -3.632716e-006
      vertex   1.891819e+002 7.562796e+001 -1.588187e-021
      vertex   1.882262e+002 7.611489e+001 -1.588187e-021
    endloop
  endfacet
  facet normal -1.795402e-006 -3.523440e-006 -6.529263e-001
    outer loop
      vertex   1.876517e+002 7.708082e+001 -3.632716e-006
      vertex   1.882262e+002 7.611489e+001 -1.588187e-021
      vertex   1.881150e+002 7.617158e+001 -1.588187e-021
    endloop
  endfacet
  facet normal 0.000000e+000 0.000000e+000 -9.732285e+000
    outer loop
      vertex   1.881150e+002 7.617158e+001 -1.588187e-021
      vertex   1.882262e+002 7.611489e+001 -1.588187e-021
      vertex   1.877238e+002 7.456859e+001 -1.588187e-021
    endloop
  endfacet
  facet normal 0.000000e+000 0.000000e+000 -6.087401e+000
    outer loop
      vertex   1.903177e+002 7.504925e+001 -1.588187e-021
      vertex   1.877238e+002 7.456859e+001 -1.588187e-021
      vertex   1.891819e+002 7.562796e+001 -1.588187e-021
    endloop
  endfacet
  facet normal 0.000000e+000 0.000000e+000 -8.910054e+000
    outer loop
      vertex   1.891819e+002 7.562796e+001 -1.588187e-021
      vertex   1.877238e+002 7.456859e+001 -1.588187e-021
      vertex   1.882262e+002 7.611489e+001 -1.588187e-021
    endloop
  endfacet
  facet normal -3.149759e-005 -1.658816e-005 -1.350468e-001
    outer loop
      vertex   1.881150e+002 7.617158e+001 -1.588187e-021
      vertex   1.857340e+002 8.069266e+001 -1.588187e-021
      vertex   1.876517e+002 7.708082e+001 -3.632716e-006
    endloop
  endfacet
  facet normal -7.914651e-006 -4.033713e-006 -1.676869e-001
    outer loop
      vertex   1.876517e+002 7.708082e+001 -3.632716e-006
      vertex   1.857340e+002 8.069266e+001 -1.588187e-021
      vertex   1.876161e+002 7.715073e+001 -3.632716e-006
    endloop
  endfacet
  facet normal 0.000000e+000 0.000000e+000 -8.545363e+000
    outer loop
      vertex   1.876517e+002 7.708082e+001 -3.632716e-006
      vertex   1.876161e+002 7.715073e+001 -3.632716e-006
      vertex   1.939335e+002 7.661006e+001 -3.632716e-006
    endloop
  endfacet
  facet normal 0.000000e+000 0.000000e+000 -8.940678e+000
    outer loop
      vertex   1.939335e+002 7.661006e+001 -3.632716e-006
      vertex   1.876161e+002 7.715073e+001 -3.632716e-006
      vertex   1.945849e+002 7.767297e+001 -3.632716e-006
    endloop
  endfacet
  facet normal -3.875946e-006 -1.974885e-006 -8.260344e-002
    outer loop
      vertex   1.857340e+002 8.069266e+001 -1.588187e-021
      vertex   1.870252e+002 7.831036e+001 -3.632716e-006
      vertex   1.876161e+002 7.715073e+001 -3.632716e-006
    endloop
  endfacet
  facet normal 0.000000e+000 0.000000e+000 -9.262020e+000
    outer loop
      vertex   1.876161e+002 7.715073e+001 -3.632716e-006
      vertex   1.870252e+002 7.831036e+001 -3.632716e-006
      vertex   1.945960e+002 7.774300e+001 -3.632716e-006
    endloop
  endfacet
  facet normal 0.000000e+000 0.000000e+000 -9.852129e-002
    outer loop
      vertex   1.876161e+002 7.715073e+001 -3.632716e-006
      vertex   1.945960e+002 7.774300e+001 -3.632716e-006
      vertex   1.945849e+002 7.767297e+001 -3.632716e-006
    endloop
  endfacet
  facet normal 0.000000e+000 0.000000e+000 -9.966124e+000
    outer loop
      vertex   1.871814e+002 7.956551e+001 -3.632716e-006
      vertex   1.871907e+002 7.962426e+001 -3.632716e-006
      vertex   1.947943e+002 7.899500e+001 -3.632716e-006
    endloop
  endfacet
  facet normal 0.000000e+000 0.000000e+000 -9.723948e+000
    outer loop
      vertex   1.947943e+002 7.899500e+001 -3.632716e-006
      vertex   1.871907e+002 7.962426e+001 -3.632716e-006
      vertex   1.946116e+002 8.018039e+001 -3.632716e-006
    endloop
  endfacet
  facet normal 4.830658e-005 7.446341e-006 -2.095383e+000
    outer loop
      vertex   1.947943e+002 7.899500e+001 -3.632716e-006
      vertex   1.946116e+002 8.018039e+001 -3.632716e-006
      vertex   1.948375e+002 7.973698e+001 -1.588187e-021
    endloop
  endfacet
  facet normal 0.000000e+000 0.000000e+000 -9.224607e+000
    outer loop
      vertex   1.946116e+002 8.018039e+001 -3.632716e-006
      vertex   1.871907e+002 7.962426e+001 -3.632716e-006
      vertex   1.945761e+002 8.024991e+001 -3.632716e-006
    endloop
  endfacet
  facet normal 0.000000e+000 0.000000e+000 -6.523319e+000
    outer loop
      vertex   1.884586e+002 8.189513e+001 -3.632716e-006
      vertex   1.929765e+002 8.223370e+001 -3.632716e-006
      vertex   1.883781e+002 8.181461e+001 -3.632716e-006
    endloop
  endfacet
  facet normal 0.000000e+000 0.000000e+000 -1.649303e+000
    outer loop
      vertex   1.883781e+002 8.181461e+001 -3.632716e-006
      vertex   1.929765e+002 8.223370e+001 -3.632716e-006
      vertex   1.939933e+002 8.139380e+001 -3.632716e-006
    endloop
  endfacet
  facet normal 0.000000e+000 0.000000e+000 -5.193131e+000
    outer loop
      vertex   1.929765e+002 8.223370e+001 -3.632716e-006
      vertex   1.884586e+002 8.189513e+001 -3.632716e-006
      vertex   1.927454e+002 8.235142e+001 -3.632716e-006
    endloop
  endfacet
  facet normal 0.000000e+000 0.000000e+000 -1.798557e+000
    outer loop
      vertex   1.927454e+002 8.235142e+001 -3.632716e-006
      vertex   1.884586e+002 8.189513e+001 -3.632716e-006
      vertex   1.893783e+002 8.260375e+001 -3.632716e-006
    endloop
  endfacet
  facet normal -3.090167e+000 -4.253250e+000 2.628654e+000
    outer loop
      vertex   1.909434e+002 7.352248e+001 1.434036e+001
      vertex   1.825144e+002 7.626123e+001 8.862828e+000
      vertex   1.857340e+002 7.182983e+001 5.477529e+000
    endloop
  endfacet
  facet normal -4.999998e+000 -1.624595e+000 -2.628651e+000
    outer loop
      vertex   1.857340e+002 8.069266e+001 -1.588187e-021
      vertex   1.857340e+002 7.182983e+001 5.477529e+000
      vertex   1.825144e+002 7.626123e+001 8.862828e+000
    endloop
  endfacet
  facet normal -5.000005e+000 -1.624596e+000 -2.628654e+000
    outer loop
      vertex   1.857340e+002 8.069266e+001 -1.588187e-021
      vertex   1.825144e+002 7.626123e+001 8.862828e+000
      vertex   1.825144e+002 8.173877e+001 5.477529e+000
    endloop
  endfacet
  facet normal -1.587613e-007 5.257317e+000 2.628656e+000
    outer loop
      vertex   1.877238e+002 8.343141e+001 1.434036e+001
      vertex   1.961529e+002 8.617018e+001 8.862828e+000
      vertex   1.909434e+002 8.786282e+001 5.477529e+000
    endloop
  endfacet
  facet normal -4.999998e+000 1.624595e+000 2.628651e+000
    outer loop
      vertex   1.857340e+002 7.730735e+001 1.434036e+001
      vertex   1.857340e+002 8.617018e+001 8.862828e+000
      vertex   1.825144e+002 8.173877e+001 5.477529e+000
    endloop
  endfacet
  facet normal -3.090172e+000 -4.253258e+000 2.628659e+000
    outer loop
      vertex   1.909434e+002 7.352248e+001 1.434036e+001
      vertex   1.857340e+002 7.182983e+001 5.477529e+000
      vertex   1.909434e+002 7.013717e+001 8.862828e+000
    endloop
  endfacet
  facet normal 4.999995e+000 -1.624606e+000 -2.628646e+000
    outer loop
      vertex   1.941630e+002 7.456859e+001 -1.588187e-021
      vertex   1.961529e+002 8.069266e+001 -1.588187e-021
      vertex   1.993725e+002 8.173877e+001 5.477529e+000
    endloop
  endfacet
  facet normal 2.568811e-007 5.257322e+000 2.628659e+000
    outer loop
      vertex   1.877238e+002 8.343141e+001 1.434036e+001
      vertex   1.909434e+002 8.786282e+001 5.477529e+000
      vertex   1.857340e+002 8.617018e+001 8.862828e+000
    endloop
  endfacet
  facet normal -5.000005e+000 1.624596e+000 2.628654e+000
    outer loop
      vertex   1.857340e+002 7.730735e+001 1.434036e+001
      vertex   1.825144e+002 8.173877e+001 5.477529e+000
      vertex   1.825144e+002 7.626123e+001 8.862828e+000
    endloop
  endfacet
  facet normal 0.000000e+000 0.000000e+000 5.877855e+000
    outer loop
      vertex   1.941630e+002 8.343141e+001 1.434036e+001
      vertex   1.877238e+002 8.343141e+001 1.434036e+001
      vertex   1.857340e+002 7.730735e+001 1.434036e+001
    endloop
  endfacet
  facet normal -3.636261e-006 -5.257321e+000 -2.628660e+000
    outer loop
      vertex   1.877238e+002 7.456859e+001 -1.588187e-021
      vertex   1.909434e+002 7.013717e+001 8.862828e+000
      vertex   1.857340e+002 7.182983e+001 5.477529e+000
    endloop
  endfacet
  facet normal 0.000000e+000 5.257311e+000 2.628653e+000
    outer loop
      vertex   1.877238e+002 8.343141e+001 1.434036e+001
      vertex   1.941630e+002 8.343141e+001 1.434036e+001
      vertex   1.961529e+002 8.617018e+001 8.862828e+000
    endloop
  endfacet
  facet normal 4.999995e+000 1.624606e+000 2.628646e+000
    outer loop
      vertex   1.941630e+002 8.343141e+001 1.434036e+001
      vertex   1.961529e+002 7.730735e+001 1.434036e+001
      vertex   1.993725e+002 7.626123e+001 8.862828e+000
    endloop
  endfacet
  facet normal 0.000000e+000 0.000000e+000 -6.624567e+000
    outer loop
      vertex   1.873794e+002 8.081596e+001 -1.588187e-021
      vertex   1.857340e+002 8.069266e+001 -1.588187e-021
      vertex   1.909434e+002 8.447753e+001 -1.588187e-021
    endloop
  endfacet
  facet normal -3.090167e+000 4.253259e+000 -2.628656e+000
    outer loop
      vertex   1.909434e+002 8.447753e+001 -1.588187e-021
      vertex   1.857340e+002 8.617018e+001 8.862828e+000
      vertex   1.909434e+002 8.786282e+001 5.477529e+000
    endloop
  endfacet
  facet normal 3.090165e+000 -4.253256e+000 2.628658e+000
    outer loop
      vertex   1.961529e+002 7.730735e+001 1.434036e+001
      vertex   1.909434e+002 7.352248e+001 1.434036e+001
      vertex   1.909434e+002 7.013717e+001 8.862828e+000
    endloop
  endfacet
  facet normal 0.000000e+000 0.000000e+000 5.877855e+000
    outer loop
      vertex   1.941630e+002 8.343141e+001 1.434036e+001
      vertex   1.857340e+002 7.730735e+001 1.434036e+001
      vertex   1.909434e+002 7.352248e+001 1.434036e+001
    endloop
  endfacet
  facet normal 0.000000e+000 0.000000e+000 -3.027588e+000
    outer loop
      vertex   1.937719e+002 8.182842e+001 -1.588187e-021
      vertex   1.909434e+002 8.447753e+001 -1.588187e-021
      vertex   1.961529e+002 8.069266e+001 -1.588187e-021
    endloop
  endfacet
  facet normal -3.090167e+000 4.253250e+000 -2.628654e+000
    outer loop
      vertex   1.909434e+002 8.447753e+001 -1.588187e-021
      vertex   1.825144e+002 8.173877e+001 5.477529e+000
      vertex   1.857340e+002 8.617018e+001 8.862828e+000
    endloop
  endfacet
  facet normal 2.247334e-006 -5.257316e+000 -2.628659e+000
    outer loop
      vertex   1.877238e+002 7.456859e+001 -1.588187e-021
      vertex   1.961529e+002 7.182983e+001 5.477529e+000
      vertex   1.909434e+002 7.013717e+001 8.862828e+000
    endloop
  endfacet
  facet normal 4.999992e+000 -1.624586e+000 -2.628657e+000
    outer loop
      vertex   1.941630e+002 7.456859e+001 -1.588187e-021
      vertex   1.993725e+002 7.626123e+001 8.862828e+000
      vertex   1.961529e+002 7.182983e+001 5.477529e+000
    endloop
  endfacet
  facet normal 4.999992e+000 1.624586e+000 2.628657e+000
    outer loop
      vertex   1.941630e+002 8.343141e+001 1.434036e+001
      vertex   1.993725e+002 8.173877e+001 5.477529e+000
      vertex   1.961529e+002 8.617018e+001 8.862828e+000
    endloop
  endfacet
  facet normal -4.999996e+000 -1.624607e+000 -2.628670e+000
    outer loop
      vertex   1.857340e+002 8.069266e+001 -1.588187e-021
      vertex   1.877238e+002 7.456859e+001 -1.588187e-021
      vertex   1.857340e+002 7.182983e+001 5.477529e+000
    endloop
  endfacet
  facet normal 3.090169e+000 -4.253249e+000 2.628650e+000
    outer loop
      vertex   1.961529e+002 7.730735e+001 1.434036e+001
      vertex   1.961529e+002 7.182983e+001 5.477529e+000
      vertex   1.993725e+002 7.626123e+001 8.862828e+000
    endloop
  endfacet
  facet normal -3.090166e+000 4.253257e+000 -2.628649e+000
    outer loop
      vertex   1.909434e+002 8.447753e+001 -1.588187e-021
      vertex   1.857340e+002 8.069266e+001 -1.588187e-021
      vertex   1.825144e+002 8.173877e+001 5.477529e+000
    endloop
  endfacet
  facet normal 0.000000e+000 -5.257311e+000 -2.628653e+000
    outer loop
      vertex   1.877238e+002 7.456859e+001 -1.588187e-021
      vertex   1.941630e+002 7.456859e+001 -1.588187e-021
      vertex   1.961529e+002 7.182983e+001 5.477529e+000
    endloop
  endfacet
  facet normal 3.090169e+000 4.253249e+000 -2.628650e+000
    outer loop
      vertex   1.961529e+002 8.069266e+001 -1.588187e-021
      vertex   1.961529e+002 8.617018e+001 8.862828e+000
      vertex   1.993725e+002 8.173877e+001 5.477529e+000
    endloop
  endfacet
  facet normal 5.000000e+000 -1.624599e+000 -2.628659e+000
    outer loop
      vertex   1.941630e+002 7.456859e+001 -1.588187e-021
      vertex   1.993725e+002 8.173877e+001 5.477529e+000
      vertex   1.993725e+002 7.626123e+001 8.862828e+000
    endloop
  endfacet
  facet normal 5.000000e+000 1.624599e+000 2.628659e+000
    outer loop
      vertex   1.941630e+002 8.343141e+001 1.434036e+001
      vertex   1.993725e+002 7.626123e+001 8.862828e+000
      vertex   1.993725e+002 8.173877e+001 5.477529e+000
    endloop
  endfacet
  facet normal 3.090172e+000 -4.253260e+000 2.628657e+000
    outer loop
      vertex   1.961529e+002 7.730735e+001 1.434036e+001
      vertex   1.909434e+002 7.013717e+001 8.862828e+000
      vertex   1.961529e+002 7.182983e+001 5.477529e+000
    endloop
  endfacet
endsolid
